<svg width="41" height="27" viewBox="0 0 41 27" fill="none" xmlns="http://www.w3.org/2000/svg">
<rect x="1" y="2" width="37" height="21" rx="10" fill="#A043ED"/>
<g filter="url(#filter0_d_144_1586)">
<rect x="1" y="3" width="37" height="21" rx="10" fill="#D9D9D9"/>
<rect x="1" y="3" width="37" height="21" rx="10" fill="url(#paint0_linear_144_1586)"/>
</g>
<g filter="url(#filter1_d_144_1586)">
<path d="M17.9081 12.6667C17.1216 10.6471 15.4346 9 13.1841 9C9.71562 9 8.39683 10.6599 7.92149 12.4947C7.5998 13.7364 7.66439 15.0583 7.71042 16C7.14028 16 6 15.6667 6 14.3333C6 13 7.28099 12.552 7.92149 12.4947C8.39683 10.6599 9.71562 9 13.1841 9C15.4346 9 17.1216 10.6471 17.9081 12.6667C18.6142 12.6667 20.0263 13 20.0263 14.3333C20.0263 15.6667 18.8736 16.2222 18.2973 16.3333C17.9642 18.1002 16.7912 19.582 14.5526 19.9251C14.6667 20.2834 14 21 13.1841 21C12.3682 21 12.0263 20.5 12 20C11.9737 19.5 12.5 18.6667 13.1841 18.6667C13.8682 18.6667 14.5526 19.5057 14.5526 19.9251C16.7912 19.582 17.9642 18.1002 18.2973 16.3333C18.5197 15.1535 18.3676 13.8465 17.9081 12.6667Z" fill="#67EAF7"/>
<path d="M13.5262 20C13.8905 20 14.2325 19.9742 14.5526 19.9251M17.9081 12.6667C17.1216 10.6471 15.4346 9 13.1841 9C9.71562 9 8.39683 10.6599 7.92149 12.4947M17.9081 12.6667C18.6142 12.6667 20.0263 13 20.0263 14.3333C20.0263 15.6667 18.8736 16.2222 18.2973 16.3333M17.9081 12.6667C18.3676 13.8465 18.5197 15.1535 18.2973 16.3333M18.2973 16.3333C17.9642 18.1002 16.7912 19.582 14.5526 19.9251M14.5526 19.9251C14.5526 19.5057 13.8682 18.6667 13.1841 18.6667C12.5 18.6667 11.9737 19.5 12 20C12.0263 20.5 12.3682 21 13.1841 21C14 21 14.6667 20.2834 14.5526 19.9251ZM7.92149 12.4947C7.5998 13.7364 7.66439 15.0583 7.71042 16C7.14028 16 6 15.6667 6 14.3333C6 13 7.28099 12.552 7.92149 12.4947ZM18.6579 8C18.5439 7 19 5 21.7368 5C25.1579 5 27.2105 5 29.6053 5C32 5 32 6.33333 32 8C32 9.66667 32 12.6667 32 14.3333C32 16 31.3158 17 28.5789 17C26.3895 17 23.5614 17 22.4211 17L20.0263 20.3333" stroke="#67EAF7" stroke-linecap="round"/>
</g>
<path d="M23 9H28.5M23 13H27" stroke="#67EAF7" stroke-linecap="round"/>
<defs>
<filter id="filter0_d_144_1586" x="0" y="2" width="41" height="25" filterUnits="userSpaceOnUse" color-interpolation-filters="sRGB">
<feFlood flood-opacity="0" result="BackgroundImageFix"/>
<feColorMatrix in="SourceAlpha" type="matrix" values="0 0 0 0 0 0 0 0 0 0 0 0 0 0 0 0 0 0 127 0" result="hardAlpha"/>
<feOffset dx="1" dy="1"/>
<feGaussianBlur stdDeviation="1"/>
<feComposite in2="hardAlpha" operator="out"/>
<feColorMatrix type="matrix" values="0 0 0 0 0 0 0 0 0 0 0 0 0 0 0 0 0 0 0.25 0"/>
<feBlend mode="normal" in2="BackgroundImageFix" result="effect1_dropShadow_144_1586"/>
<feBlend mode="normal" in="SourceGraphic" in2="effect1_dropShadow_144_1586" result="shape"/>
</filter>
<filter id="filter1_d_144_1586" x="1.5" y="0.5" width="35" height="25" filterUnits="userSpaceOnUse" color-interpolation-filters="sRGB">
<feFlood flood-opacity="0" result="BackgroundImageFix"/>
<feColorMatrix in="SourceAlpha" type="matrix" values="0 0 0 0 0 0 0 0 0 0 0 0 0 0 0 0 0 0 127 0" result="hardAlpha"/>
<feOffset/>
<feGaussianBlur stdDeviation="2"/>
<feComposite in2="hardAlpha" operator="out"/>
<feColorMatrix type="matrix" values="0 0 0 0 0.392157 0 0 0 0 0.898039 0 0 0 0 0.984314 0 0 0 1 0"/>
<feBlend mode="normal" in2="BackgroundImageFix" result="effect1_dropShadow_144_1586"/>
<feBlend mode="normal" in="SourceGraphic" in2="effect1_dropShadow_144_1586" result="shape"/>
</filter>
<linearGradient id="paint0_linear_144_1586" x1="19.5" y1="3" x2="19.5" y2="24" gradientUnits="userSpaceOnUse">
<stop stop-color="#4C29CA"/>
<stop offset="0.46" stop-color="#17238C"/>
<stop offset="1" stop-color="#120A8E"/>
</linearGradient>
</defs>
</svg>
