<svg width="279" height="389" viewBox="0 0 279 389" fill="none" xmlns="http://www.w3.org/2000/svg">
<g opacity="0.2">
<mask id="mask0_100_8874" style="mask-type:alpha" maskUnits="userSpaceOnUse" x="0" y="0" width="279" height="389">
<ellipse cx="139.142" cy="194.382" rx="139.142" ry="194.382" fill="url(#paint0_radial_100_8874)"/>
</mask>
<g mask="url(#mask0_100_8874)">
<path d="M113.074 455.051H166.206L139.64 199.995L113.074 455.051Z" fill="#1DBBFF"/>
<path d="M139.765 199.995L5.18994 418.382L52.9583 441.456L139.765 199.995Z" fill="#1DBBFF"/>
<path d="M139.891 200.12L-76.127 338.436L-42.951 379.968L139.891 200.12Z" fill="#1DBBFF"/>
<path d="M-114.667 231.175L-102.818 282.935L140.015 200.244L-114.667 231.175Z" fill="#1DBBFF"/>
<path d="M-114.667 169.563L140.015 200.369L-102.818 117.803L-114.667 169.563Z" fill="#1DBBFF"/>
<path d="M139.891 200.494L-42.951 20.7695L-76.127 62.3019L139.891 200.494Z" fill="#1DBBFF"/>
<path d="M139.765 200.618L52.9583 -40.7183L5.18994 -17.6447L139.765 200.618Z" fill="#1DBBFF"/>
<path d="M113.074 -54.4375L139.64 200.618L166.206 -54.4375H113.074Z" fill="#1DBBFF"/>
<path d="M139.517 200.618L274.091 -17.6447L226.198 -40.7183L139.517 200.618Z" fill="#1DBBFF"/>
<path d="M139.39 200.494L355.408 62.3019L322.232 20.7695L139.39 200.494Z" fill="#1DBBFF"/>
<path d="M139.266 200.369L393.948 169.563L382.099 117.803L139.266 200.369Z" fill="#1DBBFF"/>
<path d="M382.099 282.935L393.948 231.175L139.266 200.244L382.099 282.935Z" fill="#1DBBFF"/>
<path d="M139.39 200.12L322.232 379.968L355.408 338.436L139.39 200.12Z" fill="#1DBBFF"/>
<path d="M139.517 199.995L226.198 441.456L274.091 418.382L139.517 199.995Z" fill="#1DBBFF"/>
</g>
</g>
<defs>
<radialGradient id="paint0_radial_100_8874" cx="0" cy="0" r="1" gradientUnits="userSpaceOnUse" gradientTransform="translate(139.142 194.382) rotate(90) scale(194.382 139.142)">
<stop stop-color="white" stop-opacity="0"/>
<stop offset="0.4375" stop-color="white" stop-opacity="0.5"/>
<stop offset="0.6875" stop-color="white" stop-opacity="0.21"/>
<stop offset="0.932292" stop-color="white" stop-opacity="0"/>
</radialGradient>
</defs>
</svg>
